<svg width="79" height="84" xmlns="http://www.w3.org/2000/svg" xmlns:xlink="http://www.w3.org/1999/xlink" xml:space="preserve" overflow="hidden"><g transform="translate(-640 -314)"><path d="M40.25 19.25C40.25 22.1495 37.8995 24.5 35 24.5 32.1005 24.5 29.75 22.1495 29.75 19.25 29.75 16.3505 32.1005 14 35 14 37.8995 14 40.25 16.3505 40.25 19.25Z" transform="matrix(1.00994 0 0 1 637.083 314)"/><path d="M35 6.125C35 7.57475 33.8247 8.75 32.375 8.75 30.9253 8.75 29.75 7.57475 29.75 6.125 29.75 4.67525 30.9253 3.5 32.375 3.5 33.8247 3.5 35 4.67525 35 6.125Z" transform="matrix(1.00994 0 0 1 637.083 314)"/><path d="M49.875 21.875C49.875 23.3247 48.6997 24.5 47.25 24.5 45.8003 24.5 44.625 23.3247 44.625 21.875 44.625 20.4253 45.8003 19.25 47.25 19.25 48.6997 19.25 49.875 20.4253 49.875 21.875Z" transform="matrix(1.00994 0 0 1 637.083 314)"/><path d="M52.5 10.5C52.5 12.433 50.933 14 49 14 47.067 14 45.5 12.433 45.5 10.5 45.5 8.567 47.067 7 49 7 50.933 7 52.5 8.567 52.5 10.5Z" transform="matrix(1.00994 0 0 1 637.083 314)"/><path d="M66.4125 28.4375C66.2375 27.65 65.5375 27.125 64.75 27.125L19.25 27.125C18.4625 27.125 17.7625 27.65 17.5875 28.4375 17.4125 29.225 17.7625 30.0125 18.4625 30.3625 18.4625 30.3625 21.0875 31.85 21.0875 35L21.0875 75.25C21.0875 78.1375 23.45 80.5 26.3375 80.5L57.8375 80.5C60.725 80.5 63.0875 78.1375 63.0875 75.25L63.0875 35C63.0875 31.85 65.5375 30.45 65.625 30.45 66.2375 30.0125 66.675 29.225 66.4125 28.4375ZM54.25 73.5 43.75 73.5 43.75 70 54.25 70 54.25 73.5ZM54.25 66.5 43.75 66.5 43.75 63 54.25 63 54.25 66.5ZM54.25 59.5 43.75 59.5 43.75 56 54.25 56 54.25 59.5ZM54.25 52.5 43.75 52.5 43.75 49 54.25 49 54.25 52.5ZM54.25 45.5 43.75 45.5 43.75 42 54.25 42 54.25 45.5ZM59.5 35 59.5 36.6625C56.7875 35.6125 52.4125 34.125 48.125 34.125 43.4 34.125 40.5125 34.9125 37.5375 35.7 34.3 36.575 30.8875 37.45 24.5 37.625L24.5 35C24.5 33.25 23.975 31.7625 23.3625 30.625L60.6375 30.625C60.025 31.7625 59.5 33.25 59.5 35Z" transform="matrix(1.00994 0 0 1 637.083 314)"/></g></svg>