<svg width="79" height="78" xmlns="http://www.w3.org/2000/svg" xmlns:xlink="http://www.w3.org/1999/xlink" xml:space="preserve" overflow="hidden"><defs><clipPath id="clip0"><rect x="640" y="463" width="79" height="78"/></clipPath></defs><g clip-path="url(#clip0)" transform="translate(-640 -463)"><path d="M57.9207 5.77552C56.8362 4.52 55.26 3.79871 53.6064 3.79871L14.7781 3.79871C13.1272 3.79871 11.5484 4.52 10.4665 5.77552 9.3846 7.02838 8.9091 8.68199 9.13615 10.3142L16.2984 59.7056C16.6964 62.4785 19.1113 64.5889 21.9216 64.5889L46.4666 64.5889C49.2769 64.5889 51.6918 62.4812 52.0899 59.7056L59.2521 10.3142C59.2895 10.0471 59.3082 9.78261 59.3082 9.51542 59.3082 8.15034 58.8327 6.80126 57.9217 5.77545ZM52.4284 30.8306C45.5151 28.3622 39.4532 30.3177 34.0383 32.0835 27.9209 34.0603 22.6019 35.7887 16.1427 32.217L12.897 9.76408C12.8222 9.21377 12.9718 8.68219 13.3351 8.26277 13.7144 7.82735 14.2086 7.59757 14.7776 7.59757L53.6059 7.59757C54.1563 7.59757 54.6692 7.82468 55.0485 8.26277 55.4092 8.67952 55.5614 9.21377 55.4866 9.76408Z" transform="matrix(1.05017 0 0 1 643.591 462.677)"/><text font-family="Arial,Arial_MSFontService,sans-serif" font-weight="700" font-size="5" transform="matrix(0.718182 0 0 0.683874 643.591 543)">Created by IconsHome</text><text font-family="Arial,Arial_MSFontService,sans-serif" font-weight="700" font-size="5" transform="matrix(0.718182 0 0 0.683874 643.591 546)">from Noun Project</text></g></svg>