<?xml version="1.0" encoding="UTF-8"?>
<svg version="1.1" xmlns="http://www.w3.org/2000/svg" width="586" height="439">
<path d="M0 0 C193.38 0 386.76 0 586 0 C586 144.87 586 289.74 586 439 C392.62 439 199.24 439 0 439 C0 294.13 0 149.26 0 0 Z " fill="#FEFEFE" transform="translate(0,0)"/>
<path d="M0 0 C6.08627025 4.99635306 10.14907056 12.12329428 11.25 19.9375 C12.08426267 32.17870036 10.34358326 42.40059151 2.25 51.9375 C-5.50025517 59.28660325 -13.27829848 61.43042376 -23.75048828 61.2824707 C-34.01392611 60.91258474 -40.10867802 58.60275238 -47.546875 51.41015625 C-55.23430999 42.78223719 -56.5076793 33.5228521 -56.21875 22.19140625 C-55.59024113 13.55137333 -51.02627189 5.60948821 -44.75 -0.25 C-31.32326542 -10.56027781 -13.47356272 -9.32612661 0 0 Z " fill="#FDFEFC" transform="translate(268.75,199.0625)"/>
<path d="M0 0 C5.79832741 -0.04978091 11.59652784 -0.08589861 17.39501953 -0.10986328 C19.3637916 -0.1198636 21.33254905 -0.13346823 23.30126953 -0.15087891 C26.14619581 -0.1753917 28.99092415 -0.18654306 31.8359375 -0.1953125 C32.70302338 -0.20563507 33.57010925 -0.21595764 34.46347046 -0.22659302 C44.84999925 -0.22846063 55.5038887 1.4927581 63.66796875 8.4140625 C68.08718141 13.2609409 69.55913268 19.35553119 69.3828125 25.81640625 C68.38276525 31.52075738 65.49004058 36.50995942 61.4375 40.5625 C59.22343321 41.8682317 57.52982446 42.62521119 55 43 C55 43.66 55 44.32 55 45 C55.825 45.04125 56.65 45.0825 57.5 45.125 C63.21268345 46.55317086 67.45688017 49.90932152 70.9375 54.625 C73.83167972 61.09434291 73.56832873 68.03391352 73 75 C71.4375 78.5 71.4375 78.5 69 81 C68.50242187 81.51949219 68.00484375 82.03898437 67.4921875 82.57421875 C58.07664938 91.61751467 44.90194104 91.16898133 32.6171875 91.09765625 C31.67690704 91.0962413 30.73662659 91.09482635 29.76785278 91.09336853 C26.80353432 91.08783008 23.83929512 91.07528962 20.875 91.0625 C18.84895943 91.05747703 16.82291767 91.05291553 14.796875 91.04882812 C9.86455341 91.03788092 4.93229008 91.02065981 0 91 C0 89.02 0 87.04 0 85 C0.60419769 84.99635437 1.20839539 84.99270874 1.8309021 84.98895264 C8.15864584 84.94691868 14.48567831 84.87742844 20.81298828 84.79248047 C23.1696865 84.76437454 25.52647718 84.74310877 27.88330078 84.72900391 C31.28465757 84.70743082 34.68491487 84.66070529 38.0859375 84.609375 C39.64905167 84.60753204 39.64905167 84.60753204 41.2437439 84.60565186 C48.51028315 84.46240611 56.01735744 83.49700712 61.68807983 78.51776123 C65.84992406 73.73261529 66.31416421 69.58326766 66.19921875 63.5 C65.91047493 59.87654817 65.22686795 57.90167642 63 55 C56.93806952 50.70175257 51.33945685 48.92862067 43.93432617 48.79467773 C42.95368698 48.77473251 41.97304779 48.75478729 40.96269226 48.73423767 C39.9166835 48.71752518 38.87067474 48.70081268 37.79296875 48.68359375 C36.71243729 48.66281265 35.63190582 48.64203156 34.51863098 48.62062073 C31.07498389 48.55535964 27.63126205 48.49634925 24.1875 48.4375 C21.84960172 48.39429249 19.51171093 48.35067749 17.17382812 48.30664062 C11.44929722 48.19970228 5.72469235 48.09789273 0 48 C0 46.02 0 44.04 0 42 C1.28052246 41.98541748 2.56104492 41.97083496 3.88037109 41.95581055 C8.67035651 41.89746125 13.4598897 41.82023267 18.24951172 41.73754883 C20.31519178 41.70447084 22.38095851 41.67638664 24.44677734 41.65356445 C27.43103677 41.61970154 30.4145141 41.56737207 33.3984375 41.51171875 C34.30927094 41.50532883 35.22010437 41.4989389 36.15853882 41.49235535 C43.67689666 41.32327251 51.03192601 40.41156011 57 35.5625 C61.21083313 30.16737005 61.81036396 25.74264374 61 19 C59.88909878 15.28059021 58.31571661 12.86832002 55.05859375 10.71875 C50.58497695 8.41191261 46.50280887 6.89183469 41.43676758 6.79467773 C40.05567558 6.7647599 40.05567558 6.7647599 38.64668274 6.73423767 C37.65597275 6.71752518 36.66526276 6.70081268 35.64453125 6.68359375 C34.11937141 6.6524221 34.11937141 6.6524221 32.56340027 6.62062073 C29.31316937 6.55519952 26.06285723 6.49627463 22.8125 6.4375 C20.61001762 6.39430773 18.40754347 6.35069321 16.20507812 6.30664062 C10.80347147 6.19952573 5.40178388 6.09774543 0 6 C0 4.02 0 2.04 0 0 Z " fill="#74B055" transform="translate(66,169)"/>
<path d="M0 0 C5.58260235 -0.12507554 11.16436128 -0.21502383 16.74804688 -0.2746582 C18.64109533 -0.29955828 20.53405016 -0.33349149 22.42675781 -0.37719727 C35.98387427 -0.68205306 48.53888673 -0.53571811 59.625 8.4375 C65.99015755 14.72105297 69.26413622 21.24786146 69.375 30.25 C69.21503861 39.02788109 66.66265779 46.07045242 60.6484375 52.52734375 C57.20374029 55.60471543 53.74060561 58 49 58 C49 58.66 49 59.32 49 60 C44.12350992 61.94924707 39.72207456 62.26603667 34.5390625 62.1953125 C33.74849457 62.1924826 32.95792664 62.18965271 32.1434021 62.18673706 C29.63710916 62.17560955 27.13118355 62.15051926 24.625 62.125 C22.91797394 62.11496058 21.21094223 62.10583641 19.50390625 62.09765625 C15.33568472 62.0774025 11.16824988 62.03824082 7 62 C7 71.57 7 81.14 7 91 C4.69 91 2.38 91 0 91 C0 79.12 0 67.24 0 55 C2.91585938 54.97421875 5.83171875 54.9484375 8.8359375 54.921875 C11.68905914 54.88336031 14.54200579 54.83823057 17.39501953 54.79248047 C19.36368321 54.76441661 21.33245651 54.74313021 23.30126953 54.72900391 C26.14672383 54.70737095 28.99088013 54.6606193 31.8359375 54.609375 C33.13656631 54.60753204 33.13656631 54.60753204 34.46347046 54.60565186 C42.10475004 54.42630103 49.21028032 52.30685143 55.4375 47.75 C61.13576832 41.63478522 61.56232898 35.18922776 61.34765625 27.125 C60.6930228 21.24065437 58.52897832 17.11631224 54.125 13.1875 C46.21011777 7.64708244 39.26240982 6.8742696 29.8828125 6.68359375 C29.02565643 6.66281265 28.16850037 6.64203156 27.28536987 6.62062073 C24.56532286 6.55558739 21.84518483 6.49645659 19.125 6.4375 C17.27342834 6.39427076 15.42186566 6.3506551 13.5703125 6.30664062 C9.04696669 6.19995379 4.52352993 6.09855806 0 6 C0 4.02 0 2.04 0 0 Z " fill="#A3C684" transform="translate(315,169)"/>
<path d="M0 0 C1.98 0 3.96 0 6 0 C6.33 13.53 6.66 27.06 7 41 C8.32 39.02 9.64 37.04 11 35 C12.96484375 33.390625 12.96484375 33.390625 14.9375 32.25 C15.58589844 31.86328125 16.23429687 31.4765625 16.90234375 31.078125 C24.8870719 26.97424238 33.75123823 26.94414164 42.54296875 28.4296875 C48.38672705 30.31928599 53.942045 34.47533351 57.04284668 39.78608704 C60.17220546 46.14982365 60.53190637 51.58076207 60.390625 58.59765625 C60.38496521 59.67252792 60.37930542 60.7473996 60.37347412 61.85484314 C60.35124317 65.25786567 60.3010706 68.65980051 60.25 72.0625 C60.22991789 74.38214616 60.21167013 76.70180896 60.1953125 79.02148438 C60.15142212 84.6813551 60.08464412 90.34059981 60 96 C58.02 96 56.04 96 54 96 C53.99413376 95.45400146 53.98826752 94.90800293 53.98222351 94.34545898 C53.91801676 88.63443333 53.83352861 82.92395704 53.73754883 77.21337891 C53.70440718 75.08552316 53.67634213 72.95758177 53.65356445 70.82958984 C53.61982028 67.76102392 53.56749432 64.69323518 53.51171875 61.625 C53.50532883 60.68197021 53.4989389 59.73894043 53.49235535 58.76733398 C53.33541881 51.62913702 52.37604113 45.81373291 47.625 40.1875 C40.52204449 34.26837041 33.95356797 33.99941357 25.03955078 34.70703125 C20.12777231 35.41257759 16.49922692 37.57061793 13 41 C9.03652636 46.34930359 6.93496826 51.65579109 6.79467773 58.30957031 C6.77473251 59.15013977 6.75478729 59.99070923 6.73423767 60.85675049 C6.71752518 61.75480408 6.70081268 62.65285767 6.68359375 63.578125 C6.66281265 64.5046991 6.64203156 65.43127319 6.62062073 66.38592529 C6.55533039 69.34054272 6.49633569 72.29524768 6.4375 75.25 C6.39429527 77.25521732 6.35068035 79.26042585 6.30664062 81.265625 C6.19967001 86.17699404 6.09834482 91.08845097 6 96 C4.02 96 2.04 96 0 96 C0 64.32 0 32.64 0 0 Z " fill="#ACC98A" transform="translate(418,164)"/>
<path d="M0 0 C6.08627025 4.99635306 10.14907056 12.12329428 11.25 19.9375 C12.08426267 32.17870036 10.34358326 42.40059151 2.25 51.9375 C-5.50025517 59.28660325 -13.27829848 61.43042376 -23.75048828 61.2824707 C-34.01392611 60.91258474 -40.10867802 58.60275238 -47.546875 51.41015625 C-55.23430999 42.78223719 -56.5076793 33.5228521 -56.21875 22.19140625 C-55.59024113 13.55137333 -51.02627189 5.60948821 -44.75 -0.25 C-31.32326542 -10.56027781 -13.47356272 -9.32612661 0 0 Z M-44.75 8.9375 C-50.36428708 16.08295629 -49.65756018 26.18563355 -49.02050781 34.81787109 C-48.44131462 39.35627838 -46.76745165 42.56775704 -43.75 45.9375 C-43.24210938 46.5046875 -42.73421875 47.071875 -42.2109375 47.65625 C-36.8758117 52.8143811 -29.79374465 56.00272907 -22.375 56.5 C-14.60130677 56.07272254 -7.0012947 52.8207588 -1.6875 47.125 C4.94573286 38.35618974 5.6160913 28.60664684 4.25 17.9375 C1.83531311 9.38414243 -3.4607069 4.56359782 -10.8125 0.0625 C-23.38011913 -4.75366243 -36.14465374 -0.56492869 -44.75 8.9375 Z " fill="#91BD71" transform="translate(268.75,199.0625)"/>
<path d="M0 0 C1.98 0 3.96 0 6 0 C6 22.11 6 44.22 6 67 C4.02 67 2.04 67 0 67 C0 44.89 0 22.78 0 0 Z " fill="#BAD098" transform="translate(518,193)"/>
<path d="M0 0 C1.98 0 3.96 0 6 0 C6 22.11 6 44.22 6 67 C4.02 67 2.04 67 0 67 C0 44.89 0 22.78 0 0 Z " fill="#7BB259" transform="translate(174,193)"/>
<path d="M0 0 C2.4375 0.8125 2.4375 0.8125 4.4375 2.8125 C4.80237512 5.65852594 4.83949375 7.1989306 3.25 9.625 C0.8239306 11.21449375 -0.71647406 11.17737512 -3.5625 10.8125 C-5.5625 8.8125 -5.5625 8.8125 -5.875 5.875 C-5.5625 2.8125 -5.5625 2.8125 -4.375 0.875 C-2.5625 -0.1875 -2.5625 -0.1875 0 0 Z " fill="#85B865" transform="translate(177.5625,165.1875)"/>
<path d="M0 0 C2.4375 0.8125 2.4375 0.8125 4.4375 2.8125 C4.82036803 6.54546326 4.58665785 7.58876323 2.4375 10.8125 C-0.5625 11.1875 -0.5625 11.1875 -3.5625 10.8125 C-5.71752531 7.57996204 -6.03106135 6.56099077 -5.5625 2.8125 C-3.86282344 0.12880016 -3.19877434 -0.23405666 0 0 Z " fill="#BFD39F" transform="translate(521.5625,165.1875)"/>
<path d="M0 0 C0.66 0.33 1.32 0.66 2 1 C-1.63 4.63 -5.26 8.26 -9 12 C-9 7.8407692 -6.75316432 5.85455565 -4 3 C-1.6875 1.125 -1.6875 1.125 0 0 Z " fill="#A0C684" transform="translate(228,196)"/>
<path d="M0 0 C0.66 0.33 1.32 0.66 2 1 C-0.64 3.64 -3.28 6.28 -6 9 C-6.33 8.34 -6.66 7.68 -7 7 C-4.66666667 4.66666667 -2.33333333 2.33333333 0 0 Z " fill="#EDF3E5" transform="translate(435,201)"/>
<path d="M0 0 C0.66 0.33 1.32 0.66 2 1 C-0.64 3.64 -3.28 6.28 -6 9 C-6 6 -6 6 -3.5625 3.375 C-2.716875 2.59125 -1.87125 1.8075 -1 1 C-0.67 0.67 -0.34 0.34 0 0 Z " fill="#B9D19C" transform="translate(433,196)"/>
</svg>
