<svg width="79" height="84" xmlns="http://www.w3.org/2000/svg" xmlns:xlink="http://www.w3.org/1999/xlink" xml:space="preserve" overflow="hidden"><defs><clipPath id="clip0"><rect x="643" y="184" width="79" height="84"/></clipPath></defs><g clip-path="url(#clip0)" transform="translate(-643 -184)"><path d="M67.5193 17.5666C67.2526 16.7666 66.5582 16.1888 65.7249 16.0693L63.7138 15.7833C65.5638 12.8388 66.8944 9.56935 67.5888 6.14411 67.7387 5.41359 67.511 4.65803 66.9832 4.13025 66.4554 3.60525 65.7082 3.38301 64.9693 3.52191 61.5443 4.21636 58.2721 5.54694 55.3274 7.39691L55.0413 5.38581C54.9218 4.55245 54.344 3.85806 53.544 3.59416 52.744 3.32194 51.8662 3.53583 51.2691 4.13028L47.2969 8.10247C46.4747 8.92466 45.8163 9.85522 45.2996 10.8469 44.9774 10.3136 44.4552 9.92747 43.833 9.80807 43.108 9.66364 42.3635 9.89696 41.8413 10.4192L39.8107 12.447C38.7468 13.5109 37.9607 14.7553 37.4107 16.0831 36.7274 15.997 36.0412 16.2165 35.5551 16.7054L33.5273 18.7359C32.4634 19.7998 31.6773 21.0415 31.1273 22.3693 30.4468 22.2859 29.7606 22.5026 29.2718 22.9887L27.2439 25.0193C26.1801 26.0832 25.3911 27.3276 24.8439 28.6554 24.1634 28.5721 23.4773 28.7888 22.9884 29.2749L20.9578 31.3027C19.8939 32.3666 19.105 33.611 18.555 34.9388 17.8773 34.8499 17.1883 35.0693 16.6994 35.5582L14.6689 37.5861C11.4383 40.8193 10.5133 45.6223 12.3133 49.8192L14.0633 53.9054 4.12693 63.8418C3.26023 64.7084 3.26023 66.1167 4.12693 66.9834 4.56026 67.4167 5.12974 67.6334 5.69913 67.6334 6.26852 67.6334 6.83527 67.4167 7.27132 66.9834L17.2048 57.0499 21.291 58.7999C22.7159 59.411 24.2104 59.7082 25.6882 59.7082 28.5687 59.7054 31.3909 58.5776 33.5268 56.4415L35.5573 54.4137C36.0379 53.9332 36.2574 53.2581 36.1796 52.5887 37.5101 52.0387 38.7462 51.2248 39.8129 50.1581L41.8407 48.1303C42.3241 47.6498 42.5407 46.9748 42.4629 46.3054 43.7935 45.7553 45.0296 44.9414 46.0963 43.8747L48.1269 41.8441C48.6074 41.3636 48.8269 40.6886 48.7491 40.0192 50.0796 39.4692 51.3158 38.6553 52.3824 37.5886L54.413 35.5608C54.8936 35.0802 55.113 34.4053 55.0352 33.733 56.3658 33.183 57.6019 32.3691 58.6686 31.3052L60.6992 29.2774C61.2214 28.7552 61.4492 28.0107 61.3103 27.2885 61.1881 26.6524 60.7853 26.119 60.2325 25.7996 61.2325 25.2801 62.1853 24.6524 63.0131 23.8246L66.9853 19.8524C67.5797 19.258 67.7881 18.3775 67.5214 17.5775ZM58.7861 15.0999C57.8362 14.9943 56.8889 15.0193 55.9556 15.1554 56.0917 14.2249 56.1167 13.2749 56.0111 12.3248 57.8972 10.9054 59.9722 9.74983 62.1861 8.92487 61.3611 11.1388 60.2055 13.2137 58.7861 15.0999ZM50.4391 11.2443 51.2697 10.4165 51.5836 12.6165C51.878 14.6832 51.1725 16.7971 49.6975 18.2721L49.0975 18.8721 48.8309 18.0637C48.0281 15.6554 48.6447 13.0388 50.442 11.2444ZM42.6695 15.8887 43.714 18.3248C44.739 20.7193 44.2918 23.4332 42.5862 25.3637L41.5418 22.9276 41.5418 22.9248C40.5168 20.5359 40.964 17.8192 42.6695 15.8887ZM36.3834 22.1776 37.4307 24.6138C38.4557 27.0054 38.0057 29.7221 36.3029 31.6526L35.2557 29.2137C34.2307 26.822 34.6807 24.1054 36.3834 22.1776ZM30.0974 28.4609 31.1418 30.8971C32.1668 33.2915 31.7196 36.0082 30.0141 37.9359L28.9696 35.4998C27.9446 33.1054 28.3918 30.3887 30.0974 28.4609ZM23.8113 34.747 24.8558 37.1831C25.8807 39.5776 25.4335 42.2943 23.728 44.222L22.6807 41.7859C21.6558 39.3914 22.103 36.6748 23.8085 34.747ZM17.5252 41.0303 18.5724 43.472C19.5974 45.8609 19.1502 48.5776 17.4447 50.5081L16.3974 48.0692C15.3724 45.6775 15.8224 42.9609 17.5252 41.0303ZM23.0418 54.7135 20.603 53.6663C22.5307 51.9608 25.2502 51.5135 27.639 52.5385L30.0779 53.5858C28.1502 55.2913 25.4307 55.7385 23.0418 54.7135ZM29.3279 48.4274 26.8918 47.383C28.8196 45.6774 31.5362 45.2302 33.9279 46.2552L36.3668 47.3025C34.439 49.0025 31.7224 49.458 29.3307 48.4274ZM35.614 42.1414 33.1751 41.0941C35.1029 39.3886 37.8195 38.9469 40.2112 39.9664L42.6501 41.0136C40.7223 42.7219 38.0057 43.172 35.614 42.1414ZM41.9001 35.8581 39.4612 34.8108C41.3889 33.1053 44.1056 32.6524 46.4973 33.6831L48.9362 34.7303C47.0084 36.4358 44.2889 36.8858 41.9001 35.8581ZM48.1834 29.572 45.7445 28.5247C47.6722 26.822 50.3861 26.3692 52.7834 27.397L55.2223 28.4442C53.2945 30.1498 50.5779 30.5914 48.1862 29.572ZM59.867 20.6717C58.067 22.4689 55.4531 23.0828 53.0447 22.2828L52.2392 22.0134 52.8392 21.4133C54.3141 19.9356 56.4225 19.2217 58.4974 19.53L60.6975 19.8411Z" transform="matrix(1.00994 0 0 1 646.591 191.111)"/><text font-family="Arial,Arial_MSFontService,sans-serif" font-weight="700" font-size="5" transform="matrix(0.718182 0 0 0.711111 646.591 275)">Created by Bartama Graphic</text><text font-family="Arial,Arial_MSFontService,sans-serif" font-weight="700" font-size="5" transform="matrix(0.718182 0 0 0.711111 646.591 278)">from Noun Project</text></g></svg>